<svg width="1280" height="720" viewBox="0 0 1280 720" fill="none" xmlns="http://www.w3.org/2000/svg">
  <defs>
    <linearGradient id="bg" x1="0" y1="0" x2="1" y2="1">
      <stop offset="0%" stop-color="#0B1220" />
      <stop offset="100%" stop-color="#1E3A8A" />
    </linearGradient>
    <radialGradient id="sun" cx="0" cy="0" r="1" gradientUnits="userSpaceOnUse" gradientTransform="translate(980 160) rotate(45) scale(140)">
      <stop offset="0%" stop-color="#FDE68A" />
      <stop offset="100%" stop-color="#F59E0B" />
    </radialGradient>
  </defs>
  <rect width="1280" height="720" fill="url(#bg)" />

  <circle cx="980" cy="160" r="110" fill="url(#sun)" />
  <g opacity="0.9">
    <path d="M362 452c-72 0-130-47-130-106 0-52 45-95 104-104 17-44 67-75 125-75 73 0 133 46 140 107 51 8 91 46 91 93 0 53-50 96-112 96H362z" fill="#E2E8F0" />
  </g>
  <g opacity="0.7">
    <path d="M720 520c-58 0-105-38-105-85 0-42 37-76 84-83 14-36 54-62 102-62 60 0 109 38 115 88 42 6 75 38 75 76 0 42-40 76-90 76H720z" fill="#CBD5F5" />
  </g>

  <g stroke="#93C5FD" stroke-width="14" stroke-linecap="round" opacity="0.7">
    <line x1="520" y1="560" x2="520" y2="640" />
    <line x1="600" y1="560" x2="600" y2="640" />
    <line x1="680" y1="560" x2="680" y2="640" />
  </g>

  <text x="80" y="640" fill="#E0F2FE" font-family="Inter, Arial, sans-serif" font-size="46" font-weight="600" opacity="0.9">
    Weather App
  </text>
</svg>
